<?xml version="1.0" standalone="no"?>
<!DOCTYPE svg PUBLIC "-//W3C//DTD SVG 20010904//EN"
 "http://www.w3.org/TR/2001/REC-SVG-20010904/DTD/svg10.dtd">
<svg version="1.0" xmlns="http://www.w3.org/2000/svg"
 width="822.000000pt" height="847.000000pt" viewBox="0 0 822.000000 847.000000"
 preserveAspectRatio="xMidYMid meet">
<metadata>
Created by potrace 1.16, written by Peter Selinger 2001-2019
</metadata>
<g transform="translate(0.000000,847.000000) scale(0.100000,-0.100000)"
fill="#000000" stroke="none">
<path d="M3704 8451 c-3 -3 -12 -6 -22 -8 -33 -5 -67 -12 -67 -13 0 -1 -11 -4
-25 -7 -40 -8 -43 -9 -84 -27 -22 -9 -50 -19 -63 -22 -12 -3 -27 -12 -34 -20
-6 -8 -17 -14 -23 -14 -6 0 -28 -11 -49 -25 -20 -14 -37 -23 -37 -20 0 7 -70
-46 -105 -80 -12 -11 -32 -29 -46 -41 -132 -112 -267 -331 -329 -534 -55 -181
-64 -288 -85 -1040 -11 -378 -21 -640 -30 -770 -12 -189 -16 -245 -26 -350
-23 -253 -30 -323 -34 -340 -2 -8 -9 -62 -15 -120 -13 -136 -77 -517 -110
-655 -7 -27 -14 -62 -17 -77 -17 -101 -72 -283 -73 -242 0 6 -12 24 -26 40
-14 16 -44 52 -66 79 -85 106 -256 285 -334 350 -26 22 -55 47 -64 55 -9 8
-36 28 -60 45 -25 16 -48 34 -51 39 -15 20 -302 177 -333 181 -11 2 -44 12
-73 23 -28 11 -54 18 -56 16 -2 -2 -19 1 -38 6 -76 23 -191 28 -309 15 -92
-10 -115 -13 -117 -15 -2 -1 -7 -4 -13 -5 -5 -1 -11 -3 -12 -4 -3 -2 -15 -5
-63 -15 -5 -1 -16 -5 -22 -9 -7 -5 -13 -5 -13 -1 0 4 -8 0 -17 -9 -10 -8 -21
-16 -26 -16 -4 -1 -24 -8 -45 -17 -20 -10 -39 -18 -42 -18 -3 -1 -16 -8 -30
-16 -14 -8 -27 -14 -30 -15 -20 -1 -271 -199 -340 -268 -176 -175 -230 -266
-236 -402 -8 -182 101 -365 331 -558 33 -27 62 -53 65 -56 3 -3 25 -20 50 -36
24 -17 51 -36 60 -43 23 -20 122 -81 142 -88 10 -3 18 -9 18 -15 0 -5 28 -23
62 -40 34 -17 68 -37 75 -45 8 -8 127 -71 266 -140 140 -71 259 -137 270 -150
10 -13 24 -30 30 -37 18 -19 57 -75 57 -82 0 -8 42 -68 53 -76 5 -3 9 -10 9
-15 1 -16 21 -54 29 -54 4 0 13 -16 19 -35 6 -19 16 -35 21 -35 5 0 9 -9 9
-19 0 -11 5 -23 11 -27 6 -3 17 -21 25 -38 8 -17 20 -40 26 -51 37 -61 42 -71
40 -82 -2 -7 2 -13 7 -13 5 0 15 -16 22 -35 7 -19 16 -35 20 -35 4 0 12 -15
19 -33 8 -17 19 -39 26 -47 7 -8 14 -19 15 -25 4 -22 23 -55 31 -55 4 0 7 -3
6 -7 -2 -12 24 -63 33 -63 4 0 10 -11 13 -24 3 -14 13 -31 21 -39 8 -8 16 -21
17 -28 2 -8 18 -35 36 -60 17 -26 32 -50 32 -54 0 -5 11 -23 24 -40 14 -18 39
-55 55 -84 31 -52 31 -52 12 -73 -27 -28 -85 -142 -106 -208 -26 -78 -27 -208
-2 -295 10 -38 20 -77 22 -85 2 -8 4 -16 5 -17 2 -2 3 -6 4 -10 5 -21 52 -112
71 -138 12 -16 28 -42 36 -57 19 -36 82 -111 150 -178 78 -77 112 -105 183
-147 33 -20 66 -42 72 -49 19 -23 439 -222 499 -237 11 -3 45 -15 75 -27 109
-42 135 -51 150 -53 14 -2 118 -33 150 -45 8 -3 20 -6 25 -6 6 -1 30 -8 55
-16 25 -7 50 -14 55 -15 25 -2 116 -20 158 -31 49 -12 230 -26 332 -26 99 0
152 7 278 38 4 1 9 3 12 4 3 1 14 4 25 5 11 1 22 4 25 5 3 1 8 3 13 5 4 1 14
5 22 8 8 3 42 16 75 28 33 12 67 28 76 35 8 8 21 14 28 14 14 0 122 79 162
119 89 89 146 261 129 392 -7 52 -3 57 50 74 20 6 68 31 83 43 9 9 17 12 17 8
0 -4 14 2 30 14 17 12 30 18 30 15 0 -3 14 3 30 15 17 12 30 19 30 15 0 -3 15
5 33 19 19 15 37 26 41 26 4 0 33 18 65 40 31 22 60 40 64 40 11 0 226 159
258 190 14 14 49 45 78 70 106 91 269 265 353 375 12 17 25 32 28 35 3 3 17
21 30 40 14 19 30 42 37 50 13 16 116 174 174 267 177 284 354 722 439 1083
67 287 100 396 160 535 5 11 27 63 49 116 66 158 370 758 435 859 13 19 56 94
95 165 40 72 80 144 90 160 10 17 44 75 75 130 31 55 83 145 115 200 33 55 92
159 132 230 39 72 75 132 79 135 13 10 203 377 231 448 33 83 41 161 27 247
-6 33 -10 68 -10 78 0 9 -3 17 -8 17 -5 0 -7 7 -4 15 4 8 1 15 -6 15 -6 0 -8
5 -5 10 3 6 -1 17 -9 26 -9 8 -16 21 -16 28 0 7 -8 22 -17 34 -10 11 -25 30
-33 42 -8 13 -21 28 -28 34 -7 6 -26 23 -43 38 -16 15 -29 24 -29 20 0 -4 -4
-2 -8 4 -8 13 -92 57 -92 49 0 -3 -9 -1 -21 5 -11 7 -30 13 -42 16 -12 2 -33
6 -47 10 -33 7 -154 8 -210 1 -62 -8 -186 -42 -235 -63 -22 -10 -42 -18 -45
-19 -19 -5 -70 -33 -97 -53 -18 -14 -33 -21 -33 -18 0 29 -191 -159 -251 -247
-13 -18 -30 -39 -38 -48 -9 -9 -34 -37 -56 -63 -22 -26 -49 -58 -60 -70 -11
-12 -40 -45 -65 -73 -25 -28 -74 -83 -110 -123 -146 -163 -419 -444 -425 -438
-5 5 147 498 198 643 14 39 43 122 65 185 37 106 60 170 129 350 60 158 165
419 198 495 98 220 125 444 74 604 -39 122 -95 199 -221 306 -23 19 -159 87
-178 89 -8 1 -34 8 -58 15 -185 53 -419 39 -632 -38 -44 -16 -80 -27 -80 -24
0 3 -6 0 -14 -6 -8 -7 -39 -25 -70 -41 -112 -57 -259 -176 -345 -279 -20 -24
-41 -49 -47 -55 -27 -28 -108 -181 -160 -301 -30 -71 -98 -222 -149 -335 -101
-221 -303 -677 -355 -802 -18 -43 -36 -76 -39 -73 -4 2 -8 39 -9 82 -2 43 -4
92 -6 108 -17 139 -27 935 -16 1320 2 77 1 157 -3 177 -9 51 -47 158 -65 186
-8 12 -11 22 -7 22 10 0 -64 90 -109 133 -23 21 -54 45 -70 54 -16 8 -38 23
-48 33 -11 10 -32 20 -46 23 -15 3 -46 12 -70 21 -23 9 -63 19 -90 22 -55 8
-232 11 -238 5z m297 -268 c85 -39 132 -81 168 -154 51 -103 55 -143 41 -439
-17 -347 -11 -591 36 -1435 8 -154 19 -415 24 -580 13 -438 42 -632 148 -1000
l37 -130 6 470 c6 474 15 620 44 730 38 144 288 745 543 1305 71 157 155 345
186 417 59 139 98 211 149 278 111 146 274 260 452 318 114 37 170 47 275 48
142 2 250 -25 342 -84 139 -88 194 -239 155 -424 -9 -40 -71 -209 -138 -375
-141 -352 -150 -377 -275 -727 -225 -632 -363 -1135 -410 -1492 -25 -190 -30
-573 -10 -744 9 -76 20 -143 24 -147 9 -9 25 63 148 632 41 190 81 362 89 384
27 67 60 105 212 245 199 184 590 603 805 861 145 175 169 200 226 239 135 91
263 134 404 134 78 0 94 -3 150 -31 74 -37 111 -83 133 -168 28 -107 23 -127
-68 -306 -46 -90 -155 -287 -242 -438 -87 -151 -225 -391 -306 -532 -493 -858
-730 -1362 -819 -1738 -96 -409 -169 -628 -294 -885 -272 -560 -600 -952
-1042 -1245 -140 -92 -344 -201 -496 -264 -89 -36 -100 -39 -210 -55 -61 -9
-281 -7 -343 4 -16 2 -48 6 -70 9 -316 35 -804 185 -1130 349 -238 119 -360
220 -547 451 -150 187 -257 360 -501 811 -226 419 -322 568 -416 643 -20 16
-126 74 -236 130 -539 272 -862 510 -960 706 -61 120 -47 177 72 306 146 159
342 298 495 352 114 40 158 49 262 50 156 1 251 -23 416 -108 249 -127 511
-378 795 -761 96 -130 121 -149 182 -140 75 13 91 48 179 392 150 590 220
1120 269 2040 3 61 12 340 20 620 21 685 30 774 101 950 103 260 316 463 559
533 96 28 107 30 211 27 75 -3 101 -8 155 -32z m-1426 -7016 c101 -75 360
-210 530 -277 248 -96 454 -158 715 -214 235 -50 530 -73 685 -52 118 15 110
18 109 -39 -4 -140 -141 -247 -399 -311 -88 -21 -133 -27 -225 -26 -469 1
-1259 288 -1558 567 -145 135 -252 336 -252 476 0 52 21 128 45 165 l16 25
122 -123 c67 -68 163 -154 212 -191z"/>
<path d="M4190 2849 c-68 -15 -65 -7 -225 -534 -75 -245 -167 -508 -256 -724
-68 -167 -73 -205 -31 -252 21 -24 39 -32 73 -36 74 -8 96 19 178 222 37 94
96 248 130 343 69 193 271 849 271 880 0 30 -42 84 -75 97 -18 7 -44 9 -65 4z"/>
<path d="M3272 2575 c-21 -9 -38 -26 -46 -47 -8 -18 -30 -139 -51 -268 -39
-253 -55 -332 -112 -565 -40 -164 -39 -191 4 -231 51 -47 123 -40 165 17 38
51 130 471 189 861 25 167 20 195 -35 229 -37 22 -69 23 -114 4z"/>
<path d="M4791 2302 c-51 -8 -72 -36 -157 -206 -131 -259 -219 -404 -367 -603
-92 -124 -97 -133 -97 -180 0 -73 70 -121 147 -101 25 6 51 35 129 140 148
199 253 370 369 600 111 219 123 259 87 305 -21 27 -79 51 -111 45z"/>
</g>
</svg>
