<?xml version="1.0" standalone="no"?>
<!DOCTYPE svg PUBLIC "-//W3C//DTD SVG 20010904//EN"
 "http://www.w3.org/TR/2001/REC-SVG-20010904/DTD/svg10.dtd">
<svg version="1.0" xmlns="http://www.w3.org/2000/svg"
 width="573.000000pt" height="490.000000pt" viewBox="0 0 573.000000 490.000000"
 preserveAspectRatio="xMidYMid meet">
<metadata>
Created by potrace 1.16, written by Peter Selinger 2001-2019
</metadata>
<g transform="translate(0.000000,490.000000) scale(0.100000,-0.100000)"
fill="#000000" stroke="none">
<path d="M2310 4883 c-247 -24 -501 -114 -679 -240 -92 -66 -226 -203 -289
-298 -69 -104 -142 -253 -187 -385 -20 -58 -39 -108 -43 -112 -4 -3 -50 -1
-102 4 -126 15 -275 -1 -401 -41 -481 -155 -704 -671 -482 -1116 38 -76 93
-154 160 -225 l42 -46 -66 -59 c-115 -103 -199 -260 -234 -440 -20 -100 -17
-310 5 -415 70 -335 296 -592 586 -666 l68 -18 6 -53 c9 -78 51 -200 93 -273
51 -86 180 -215 275 -274 315 -194 807 -261 1468 -200 486 45 878 158 1306
378 166 85 368 213 489 311 250 200 474 456 627 716 61 104 64 107 93 100 17
-3 75 -6 130 -6 92 0 106 3 169 33 100 47 186 138 252 267 103 199 133 328
134 570 0 341 -82 744 -225 1100 -97 243 -171 360 -306 490 -238 229 -507 295
-731 180 l-63 -32 -85 70 c-507 413 -1265 692 -1860 685 -63 -1 -131 -3 -150
-5z m381 -218 c498 -58 1029 -275 1444 -588 120 -91 307 -278 396 -396 130
-173 220 -384 302 -706 84 -329 111 -526 111 -805 0 -264 -14 -337 -100 -500
-296 -559 -762 -960 -1418 -1219 -257 -102 -541 -173 -821 -206 -815 -95
-1408 28 -1613 335 -42 62 -75 139 -86 201 l-6 35 227 12 c323 17 507 46 698
110 l80 27 -115 7 c-63 4 -259 16 -436 27 -176 12 -371 21 -433 21 -225 0
-364 50 -491 178 -88 88 -145 191 -182 327 -29 112 -30 298 0 408 47 171 146
297 266 337 65 21 68 21 209 6 331 -35 516 -30 794 26 89 17 161 33 160 34 -1
1 -119 16 -262 33 -379 45 -709 103 -807 142 -83 32 -152 84 -212 161 -71 89
-102 148 -127 246 -78 307 113 610 446 703 103 29 263 31 385 5 71 -16 111
-18 245 -12 404 15 670 98 897 279 37 29 151 135 252 235 179 175 183 180 113
135 -441 -285 -598 -360 -867 -412 -102 -19 -397 -47 -406 -38 -9 9 67 202
118 298 143 274 367 447 684 528 165 42 346 51 555 26z m2111 -675 c124 -38
277 -161 364 -292 101 -152 203 -414 274 -703 63 -260 75 -352 75 -590 l0
-210 -38 -110 c-86 -249 -184 -355 -327 -355 l-43 0 7 38 c4 20 14 75 22 122
21 116 21 426 0 595 -60 484 -195 938 -356 1200 -40 65 -117 170 -190 257
l-30 36 42 15 c60 21 125 20 200 -3z"/>
<path d="M4340 3249 c-102 -21 -357 -49 -535 -59 -284 -16 -294 -17 -327 -50
-47 -48 -31 -134 31 -160 70 -29 870 43 953 86 35 18 48 43 48 89 0 47 -13 71
-50 90 -32 17 -53 17 -120 4z"/>
<path d="M4320 2644 c-229 -69 -430 -118 -780 -189 -179 -36 -338 -70 -353
-76 -55 -23 -74 -105 -36 -153 41 -52 46 -52 398 19 416 84 825 187 963 242
70 28 90 109 41 162 -43 46 -71 45 -233 -5z"/>
<path d="M4360 2129 c-177 -107 -327 -180 -540 -263 -215 -85 -240 -102 -240
-166 0 -58 39 -100 94 -100 51 0 353 118 536 210 168 84 377 207 395 233 26
37 19 94 -14 128 -49 49 -93 41 -231 -42z"/>
</g>
</svg>
