<?xml version="1.0" standalone="no"?>
<!DOCTYPE svg PUBLIC "-//W3C//DTD SVG 20010904//EN"
 "http://www.w3.org/TR/2001/REC-SVG-20010904/DTD/svg10.dtd">
<svg version="1.0" xmlns="http://www.w3.org/2000/svg"
 width="1051.000000pt" height="740.000000pt" viewBox="0 0 1051.000000 740.000000"
 preserveAspectRatio="xMidYMid meet">
<metadata>
Created by potrace 1.16, written by Peter Selinger 2001-2019
</metadata>
<g transform="translate(0.000000,740.000000) scale(0.100000,-0.100000)"
fill="#000000" stroke="none">
<path d="M4110 7380 c-574 -44 -1121 -186 -1601 -417 l-137 -65 -73 62 c-287
241 -690 219 -1106 -59 -265 -177 -548 -546 -803 -1046 -273 -538 -406 -1025
-370 -1365 34 -327 111 -533 254 -676 112 -112 260 -172 431 -174 l50 -1 63
-192 c245 -747 708 -1368 1406 -1890 365 -272 747 -481 1172 -640 847 -317
1747 -205 2668 333 75 44 143 80 151 80 7 0 108 -40 222 -89 607 -259 1232
-575 1958 -991 329 -189 439 -230 646 -246 230 -17 477 96 618 283 198 264
264 633 181 1014 -76 349 -273 654 -560 866 -30 22 -134 88 -230 145 -96 57
-348 212 -560 345 -212 132 -494 304 -628 383 -133 78 -241 144 -240 146 2 1
138 -8 303 -22 749 -61 1115 -105 1500 -181 216 -43 389 -49 510 -19 284 72
483 284 551 588 23 101 23 326 0 433 -59 273 -176 485 -381 691 -212 213 -438
339 -755 420 -243 61 -764 135 -1470 209 -684 72 -1196 142 -1210 165 -4 6
-12 70 -19 142 -57 608 -273 1030 -685 1340 -300 225 -660 357 -1126 414 -149
18 -569 26 -730 14z m789 -309 c268 -42 473 -105 661 -202 484 -251 736 -636
802 -1226 6 -62 10 -115 7 -117 -7 -7 -250 64 -374 108 -55 20 -163 67 -240
105 -279 138 -434 258 -774 601 -229 231 -240 240 -188 165 30 -44 96 -147
147 -230 134 -216 200 -313 287 -416 239 -285 601 -482 1148 -624 274 -71 668
-129 1445 -210 867 -91 1352 -165 1578 -241 399 -133 694 -427 792 -789 30
-111 38 -296 16 -389 -58 -245 -222 -376 -473 -376 -54 0 -143 12 -255 34
-421 84 -882 135 -1933 216 -220 17 -492 42 -605 55 -533 63 -851 62 -1304 -6
-110 -16 -201 -31 -203 -32 -1 -2 150 -22 336 -45 502 -63 928 -138 1088 -192
171 -58 809 -423 1539 -881 182 -114 411 -255 508 -313 213 -128 268 -168 372
-279 136 -145 223 -308 281 -525 23 -87 26 -116 26 -272 1 -149 -3 -187 -21
-255 -33 -120 -90 -231 -156 -302 -103 -111 -198 -149 -355 -140 -156 8 -213
33 -610 259 -756 432 -1490 793 -2126 1048 -389 155 -776 251 -1189 295 -164
17 -481 20 -454 5 15 -9 665 -246 1026 -375 90 -32 160 -61 155 -66 -18 -17
-245 -131 -357 -179 -404 -173 -756 -250 -1146 -250 -364 0 -620 55 -1006 216
-537 223 -1008 537 -1415 944 -237 236 -401 447 -558 713 -148 253 -279 574
-357 875 -29 114 -34 149 -34 249 0 208 51 460 157 766 140 408 376 879 601
1197 85 121 308 346 437 441 489 361 1150 588 1930 663 22 2 180 3 350 1 256
-2 333 -7 444 -24z m-2889 -263 c30 -14 66 -35 80 -47 l25 -22 -25 -17 c-370
-256 -605 -537 -877 -1047 -318 -598 -513 -1208 -517 -1619 l-1 -128 -52 5
c-155 16 -259 150 -314 407 -33 154 -33 393 -1 540 126 560 510 1296 860 1648
130 131 328 248 492 292 107 29 254 24 330 -12z"/>
<path d="M2017 5735 c-67 -23 -97 -65 -97 -135 0 -53 23 -93 69 -118 116 -65
490 -199 891 -318 297 -89 324 -93 377 -59 82 54 81 189 -2 237 -16 9 -151 53
-300 97 -308 91 -474 147 -695 236 -189 75 -196 77 -243 60z"/>
<path d="M1740 4993 c-23 -9 -60 -45 -76 -75 -28 -53 -13 -119 38 -164 51 -46
525 -306 777 -427 246 -118 773 -359 829 -379 42 -15 60 -17 91 -8 63 17 101
71 101 146 0 74 -37 103 -280 214 -688 314 -858 398 -1195 590 -158 91 -199
110 -231 109 -21 0 -46 -3 -54 -6z"/>
<path d="M1513 4350 c-18 -10 -39 -33 -48 -49 -19 -37 -19 -103 -1 -139 15
-28 205 -211 369 -355 129 -113 254 -208 492 -372 219 -152 248 -163 318 -130
71 33 100 133 58 200 -11 18 -105 90 -235 179 -262 181 -421 309 -625 504 -85
81 -166 155 -180 164 -35 24 -108 23 -148 -2z"/>
</g>
</svg>
